
<svg width="291" height="203" viewBox="0 0 291 203" fill="none" xmlns="http://www.w3.org/2000/svg">
<path fill-rule="evenodd" clip-rule="evenodd" d="M262.167 61.2991C262.456 61.5759 262.466 62.0349 262.189 62.3242C260.431 64.1619 259.217 65.2899 257.671 66.0573C256.138 66.8177 254.328 67.1992 251.445 67.6842C250.109 67.909 248.584 68.0501 247.008 68.1873C246.85 68.201 246.692 68.2147 246.533 68.2284C245.094 68.3528 243.615 68.4808 242.156 68.6705C241.457 68.7614 240.769 68.8658 240.1 68.989C240.003 69.0301 239.9 69.0489 239.798 69.0462C239.722 69.0609 239.647 69.0758 239.572 69.091C239.64 69.3305 239.713 69.5822 239.788 69.8394L239.824 69.9634C240.015 70.6193 240.215 71.3161 240.304 71.8331C240.739 74.3461 241.426 76.6785 242.306 78.9184C242.341 78.9072 242.376 78.896 242.412 78.8847C242.633 78.8138 242.859 78.7413 243.087 78.6667C244.341 78.2567 245.547 77.9043 246.714 77.5632C250.276 76.5223 253.48 75.586 256.596 73.4335C256.926 73.2059 257.377 73.2885 257.605 73.6179C257.832 73.9474 257.75 74.3989 257.42 74.6265C254.094 76.9243 250.589 77.9469 246.97 79.0029C245.836 79.3335 244.692 79.6675 243.538 80.0449C243.302 80.122 243.077 80.1942 242.862 80.263C244.263 83.4942 246.055 86.565 248.055 89.7524C248.552 90.5459 249.035 90.9551 249.475 91.153C249.907 91.3475 250.377 91.3732 250.923 91.2518C251.484 91.1276 252.097 90.8548 252.78 90.4807C253.26 90.2177 253.743 89.9233 254.25 89.6138C254.469 89.4802 254.693 89.3438 254.923 89.2059C256.363 88.3429 258.035 87.5352 259.693 86.7339C260.486 86.3505 261.277 85.9686 262.037 85.5828C264.44 84.3638 266.583 83.0907 267.973 81.5284C268.239 81.2292 268.697 81.2024 268.996 81.4686C269.296 81.7347 269.322 82.193 269.056 82.4921C267.468 84.277 265.104 85.6528 262.693 86.8759C261.874 87.2917 261.052 87.6886 260.243 88.079C258.621 88.8624 257.054 89.6196 255.669 90.4496C255.461 90.5742 255.25 90.703 255.037 90.8326C254.516 91.15 253.987 91.4725 253.476 91.7525C252.751 92.1494 251.997 92.4989 251.238 92.6674C250.465 92.8389 249.663 92.8279 248.88 92.4753C248.104 92.1262 247.425 91.478 246.826 90.523C244.791 87.2788 242.936 84.1035 241.482 80.7228C241.436 80.7394 241.391 80.7561 241.346 80.7728C240.733 81.0039 240.348 81.2086 240.127 81.4155C239.949 81.5814 239.88 81.7403 239.903 82.0013C239.933 82.3247 240.113 82.8242 240.598 83.5876C240.812 83.9257 240.712 84.3737 240.374 84.5882C240.036 84.8028 239.588 84.7026 239.374 84.3646C238.849 83.538 238.521 82.8024 238.459 82.1331C238.393 81.4015 238.651 80.8102 239.137 80.356C239.579 79.9428 240.194 79.6574 240.835 79.4159C240.867 79.4041 240.898 79.3923 240.93 79.3806C240.031 77.0822 239.324 74.676 238.875 72.0802C238.803 71.6603 238.63 71.05 238.432 70.3682L238.39 70.2252C238.312 69.9593 238.233 69.6861 238.159 69.4195C236.49 69.8626 235.004 70.4771 233.834 71.3633C233.515 71.605 233.06 71.5422 232.819 71.223C232.577 70.9038 232.64 70.449 232.959 70.2073C234.326 69.1721 236.017 68.4842 237.834 68.0052C237.816 67.8713 237.805 67.7407 237.807 67.6199C237.808 67.4992 237.82 67.3302 237.886 67.1611C237.958 66.9777 238.122 66.7315 238.444 66.6347C238.729 66.5486 238.979 66.6323 239.117 66.6957C239.266 66.764 239.402 66.8622 239.521 66.9613C239.687 67.0998 239.873 67.2862 240.082 67.5186C240.708 67.4081 241.339 67.3144 241.969 67.2326C243.461 67.0386 244.972 66.9079 246.406 66.784C246.566 66.7702 246.725 66.7564 246.882 66.7427C248.466 66.6049 249.934 66.468 251.204 66.2543C254.111 65.7653 255.714 65.4097 257.026 64.7585C258.324 64.1143 259.386 63.1561 261.142 61.3217C261.419 61.0324 261.877 61.0223 262.167 61.2991ZM224.802 70.4245C224.791 70.6823 224.805 71.0258 224.854 71.4706C225.195 74.5456 225.128 77.6813 225.062 80.7589C225.053 81.1774 225.044 81.5949 225.036 82.0109C224.97 85.5103 224.977 88.9276 225.623 92.2269C225.713 92.6912 225.783 93.1096 225.805 93.4424C225.817 93.6071 225.819 93.7821 225.796 93.9456C225.777 94.0824 225.723 94.3531 225.503 94.564C225.215 94.8394 224.857 94.8314 224.618 94.7542C224.414 94.6881 224.243 94.5618 224.118 94.4555C223.856 94.2323 223.547 93.8777 223.189 93.417C220.699 90.2135 218.192 87.0912 215.402 84.1855C215.123 83.8946 212.363 81.308 209.644 78.9917C208.285 77.8338 206.961 76.7654 205.977 76.0914C205.715 75.9121 205.492 75.7708 205.308 75.6653C205.135 77.8568 205.086 80.2976 205.165 82.4297C205.177 82.7553 205.259 83.3073 205.402 84.0692C205.543 84.8183 205.735 85.727 205.952 86.7465C205.986 86.9054 206.021 87.0669 206.056 87.2307C206.469 89.1624 206.953 91.4239 207.335 93.6439C207.748 96.0441 208.051 98.4417 208.008 100.35C207.986 101.302 207.878 102.18 207.626 102.892C207.375 103.604 206.942 104.249 206.21 104.542C205.838 104.69 205.416 104.509 205.267 104.137C205.119 103.765 205.3 103.344 205.672 103.195C205.864 103.118 206.081 102.914 206.259 102.409C206.437 101.905 206.538 101.201 206.558 100.317C206.598 98.5552 206.316 96.2716 205.906 93.8899C205.529 91.7003 205.051 89.4666 204.637 87.5308C204.602 87.3681 204.568 87.2076 204.534 87.0493C204.317 86.0321 204.122 85.1064 203.977 84.3372C203.835 83.5807 203.733 82.9305 203.716 82.4835C203.626 80.0624 203.697 77.2604 203.924 74.8352C203.938 74.6825 203.989 74.4911 204.13 74.3201C204.277 74.1428 204.466 74.0518 204.639 74.0148C204.937 73.9513 205.223 74.0375 205.4 74.1026C205.794 74.248 206.283 74.5436 206.796 74.8952C207.847 75.6146 209.219 76.7248 210.584 77.8879C213.314 80.2132 216.117 82.8372 216.448 83.1812C219.227 86.0761 221.721 89.1704 224.161 92.3054C223.521 88.9024 223.521 85.4159 223.586 81.9834C223.594 81.5628 223.603 81.1432 223.612 80.7246C223.678 77.6365 223.743 74.6033 223.413 71.6304C223.359 71.1411 223.338 70.7188 223.353 70.3627C223.368 70.0154 223.419 69.6847 223.538 69.4059C223.664 69.1145 223.894 68.8209 224.279 68.7029C224.637 68.5929 224.974 68.6856 225.215 68.795C225.683 69.0079 226.167 69.4576 226.616 69.9504C227.085 70.4654 227.591 71.1129 228.1 71.8167C229.662 73.9736 231.381 76.8386 232.279 78.3358C232.542 78.7739 232.735 79.0948 232.833 79.2467C233.16 79.7548 234.008 80.8826 235.133 82.3789L235.475 82.8338C236.756 84.5372 238.308 86.6118 239.758 88.6638C241.205 90.7107 242.566 92.7577 243.456 94.4027C243.898 95.2197 244.245 95.9761 244.419 96.6033C244.505 96.9153 244.561 97.2387 244.542 97.5437C244.523 97.8541 244.418 98.2141 244.114 98.4807C243.813 98.7446 243.355 98.7143 243.091 98.4131C242.847 98.1346 242.854 97.7219 243.095 97.4528C243.095 97.4527 243.095 97.4527 243.095 97.4526C243.1 97.374 243.087 97.2258 243.021 96.9904C242.892 96.5226 242.607 95.8804 242.181 95.0925C241.334 93.5275 240.015 91.5388 238.574 89.5007C237.137 87.4678 235.597 85.4083 234.316 83.7051C234.192 83.5395 234.07 83.377 233.95 83.2179C232.852 81.758 231.972 80.5877 231.614 80.0319C231.489 79.8387 231.267 79.4684 230.973 78.9789C230.055 77.4495 228.439 74.7564 226.926 72.6671C226.432 71.9844 225.961 71.3852 225.544 70.9267C225.24 70.5931 224.996 70.3704 224.816 70.2384C224.81 70.2914 224.805 70.3531 224.802 70.4245ZM224.575 70.0999C224.575 70.0998 224.577 70.1001 224.579 70.101C224.577 70.1004 224.575 70.1 224.575 70.0999ZM204.822 75.44C204.822 75.44 204.824 75.4402 204.826 75.4407C204.824 75.4404 204.822 75.4401 204.822 75.44ZM146.801 84.8315C147.189 84.7302 147.585 84.9622 147.686 85.3495C148.159 87.1558 148.566 89.1005 148.974 91.0811C149.007 91.2414 149.04 91.4019 149.074 91.5627C149.45 93.3942 149.833 95.2525 150.275 97.084C151.24 101.078 152.474 104.864 154.482 107.831C154.616 108.028 154.741 108.22 154.861 108.405C155.232 108.974 155.558 109.474 155.952 109.855C156.196 110.09 156.428 110.238 156.663 110.309C156.889 110.379 157.166 110.393 157.531 110.284C162.458 108.816 167.224 106.638 171.995 104.457C173.934 103.571 175.874 102.685 177.826 101.845C178.194 101.687 178.621 101.857 178.779 102.225C178.937 102.592 178.767 103.019 178.399 103.177C176.513 103.988 174.612 104.857 172.694 105.733C167.886 107.93 162.975 110.175 157.945 111.674C157.333 111.856 156.763 111.857 156.238 111.696C155.721 111.538 155.298 111.238 154.945 110.898C154.42 110.391 153.968 109.695 153.581 109.099C153.476 108.938 153.376 108.784 153.281 108.643C151.122 105.454 149.841 101.459 148.866 97.4245C148.417 95.5674 148.03 93.6849 147.654 91.8575C147.621 91.6958 147.587 91.5345 147.554 91.3737C147.145 89.3898 146.745 87.4807 146.283 85.7164C146.182 85.329 146.414 84.9328 146.801 84.8315ZM134.929 91.3343C135.036 91.5271 135.192 91.8887 135.394 92.3958C135.489 92.6326 135.45 92.8897 135.313 93.0836C135.402 93.3959 135.505 93.7514 135.623 94.1471C136.409 96.7972 137.745 101.019 139.115 105.235C140.484 109.451 141.885 113.652 142.803 116.26C142.942 116.656 143.069 117.011 143.181 117.321C143.389 117.403 143.555 117.579 143.616 117.812C143.755 118.341 143.844 118.719 143.874 118.932C143.881 118.982 143.892 119.066 143.889 119.155C143.887 119.187 143.883 119.301 143.829 119.43C143.8 119.498 143.737 119.619 143.607 119.722C143.458 119.84 143.273 119.893 143.09 119.877C142.812 119.853 142.648 119.682 142.621 119.654L142.619 119.652C142.568 119.599 142.533 119.548 142.515 119.521C142.477 119.462 142.445 119.4 142.421 119.352C142.244 118.99 141.888 118.03 141.435 116.741C140.512 114.116 139.106 109.903 137.736 105.683C136.365 101.464 135.025 97.228 134.233 94.5597C133.844 93.251 133.569 92.2595 133.504 91.8547C133.495 91.8005 133.485 91.7281 133.484 91.654C133.483 91.6193 133.483 91.5537 133.497 91.4765L133.497 91.4746C133.505 91.4299 133.547 91.204 133.757 91.0316C133.887 90.9255 134.051 90.8652 134.224 90.8657C134.38 90.8661 134.5 90.9159 134.57 90.953C134.697 91.0209 134.774 91.1104 134.798 91.139C134.86 91.2116 134.904 91.2896 134.929 91.3343ZM111.353 95.4193C111.243 95.7476 111.135 96.2124 111.034 96.848C110.627 99.4271 110.689 102.191 110.869 105.011C110.926 105.895 110.994 106.789 111.063 107.683C111.14 108.686 111.217 109.69 111.278 110.681C112.462 110.106 113.8 109.559 115.211 109.045C117.019 108.385 118.967 107.773 120.883 107.221C118.73 104.61 116.602 101.972 114.561 99.2684C114.043 98.581 113.559 97.8461 113.126 97.1871C113.046 97.0658 112.968 96.9471 112.892 96.8318C112.381 96.0601 111.974 95.4759 111.638 95.1483C111.589 95.1 111.547 95.0638 111.514 95.0368C111.471 95.1138 111.415 95.2349 111.353 95.4193ZM122.409 106.791C120.126 104.031 117.875 101.253 115.719 98.3951C115.231 97.7485 114.777 97.0589 114.343 96.3991C114.262 96.2755 114.181 96.1529 114.101 96.0319C113.613 95.294 113.12 94.5679 112.651 94.1109C112.421 93.8862 112.12 93.6471 111.755 93.5555C111.319 93.4459 110.901 93.5725 110.58 93.8849C110.304 94.1535 110.119 94.5389 109.978 94.9585C109.832 95.3934 109.709 95.9457 109.602 96.6218C109.169 99.3653 109.24 102.261 109.422 105.104C109.481 106.03 109.552 106.947 109.622 107.852C109.715 109.064 109.807 110.256 109.868 111.424C108.911 111.975 108.089 112.563 107.489 113.19C106.722 113.989 106.22 114.96 106.448 116.044C106.668 117.088 107.521 117.99 108.83 118.793C109.172 119.002 109.618 118.895 109.827 118.554C110.037 118.212 109.93 117.766 109.588 117.557C108.396 116.825 107.963 116.201 107.867 115.745C107.779 115.329 107.929 114.825 108.535 114.193C108.885 113.828 109.355 113.457 109.931 113.083C109.933 113.19 109.935 113.295 109.937 113.401C109.943 113.824 109.958 114.28 109.973 114.758C110.01 115.882 110.05 117.133 109.993 118.385C109.914 120.131 109.647 121.7 109.014 122.748C109.002 122.757 108.987 122.766 108.971 122.777C108.926 122.805 108.876 122.836 108.821 122.87C108.768 122.902 108.708 122.938 108.654 122.973C108.603 123.005 108.539 123.046 108.483 123.089C108.456 123.109 108.414 123.142 108.372 123.185L108.37 123.187C108.347 123.208 108.222 123.331 108.167 123.529C108.13 123.662 108.114 123.875 108.237 124.09C108.352 124.291 108.525 124.379 108.62 124.415C108.782 124.475 108.928 124.463 108.964 124.461L108.966 124.46C109.071 124.452 109.181 124.426 109.268 124.403C109.487 124.346 109.657 124.194 109.744 124.003C109.747 124.002 109.749 124 109.751 123.999C109.807 123.963 109.872 123.92 109.931 123.876L109.935 123.873C109.971 123.846 110.094 123.754 110.181 123.617C111.073 122.224 111.359 120.28 111.442 118.451C111.501 117.14 111.458 115.789 111.421 114.645C111.406 114.184 111.392 113.757 111.387 113.38C111.381 113.011 111.371 112.639 111.357 112.263C111.358 112.263 111.359 112.262 111.361 112.262C112.606 111.617 114.094 110.995 115.707 110.407C117.68 109.688 119.814 109.028 121.892 108.44C122.633 109.333 123.376 110.223 124.117 111.113C125.251 112.471 126.382 113.828 127.503 115.188C127.602 115.309 127.711 115.438 127.827 115.577C128.12 115.926 128.458 116.327 128.787 116.757C129.249 117.361 129.63 117.942 129.803 118.399C129.622 118.352 129.421 118.285 129.202 118.212C129.173 118.203 129.144 118.193 129.114 118.183C128.966 118.134 128.804 118.081 128.656 118.043C128.533 118.012 128.319 117.962 128.105 117.986C127.707 118.032 127.421 118.391 127.467 118.789C127.51 119.17 127.842 119.448 128.22 119.431C128.232 119.433 128.256 119.438 128.296 119.448C128.388 119.471 128.506 119.509 128.657 119.559C128.686 119.569 128.717 119.579 128.749 119.59C129.017 119.68 129.366 119.796 129.684 119.858C129.865 119.894 130.079 119.921 130.295 119.901C130.51 119.882 130.801 119.809 131.035 119.57C131.278 119.321 131.35 119.006 131.346 118.729C131.342 118.463 131.269 118.181 131.162 117.895C130.91 117.222 130.413 116.496 129.938 115.876C129.587 115.417 129.213 114.972 128.915 114.617C128.805 114.487 128.706 114.369 128.622 114.266C127.489 112.891 126.35 111.525 125.212 110.161C124.616 109.446 124.02 108.731 123.425 108.016C126.2 107.266 128.769 106.659 130.579 106.231C131.476 106.019 132.187 105.851 132.643 105.731C133.031 105.63 133.263 105.234 133.161 104.847C133.06 104.459 132.664 104.227 132.276 104.329C131.853 104.439 131.177 104.599 130.313 104.803C128.375 105.261 125.494 105.942 122.409 106.791ZM89.4618 105.846C89.4083 106.118 89.379 106.542 89.4005 107.166C89.4113 107.481 89.4332 107.906 89.4595 108.417C89.5924 110.996 89.8386 115.779 89.3558 119.764C89.0703 122.121 88.5131 124.385 87.3841 125.726C86.794 126.426 86.024 126.902 85.061 126.968C84.1228 127.032 83.108 126.7 82.0197 126.016C79.4779 124.419 77.4429 122.152 75.6908 119.712C74.3093 117.789 73.08 115.722 71.9175 113.767C71.6643 113.341 71.4143 112.921 71.1665 112.508C71.1662 112.51 71.1659 112.512 71.1656 112.514C71.0243 113.487 71.0474 114.856 71.0582 115.238C71.1121 117.157 71.3309 119.262 71.5748 121.48C71.5967 121.678 71.6187 121.878 71.6409 122.079C71.8647 124.105 72.0974 126.212 72.2258 128.308C72.5069 132.898 72.2996 137.566 70.3149 141.406C70.131 141.762 69.6936 141.901 69.3379 141.717C68.9822 141.533 68.8429 141.096 69.0267 140.74C70.8225 137.266 71.0563 132.933 70.7785 128.396C70.6524 126.338 70.4236 124.266 70.1992 122.234C70.1772 122.035 70.1553 121.836 70.1335 121.638C69.8903 119.426 69.6646 117.266 69.6088 115.279C69.5981 114.901 69.5693 113.417 69.7307 112.306C69.7715 112.025 69.8279 111.742 69.9098 111.495C69.9818 111.277 70.113 110.96 70.3809 110.747C70.5345 110.624 70.7395 110.532 70.9826 110.531C71.2167 110.529 71.414 110.612 71.5626 110.708C71.8375 110.886 72.0589 111.18 72.2478 111.493C72.5584 112.008 72.8687 112.529 73.181 113.054C74.3399 115.002 75.5274 116.999 76.8686 118.867C78.5663 121.231 80.4722 123.332 82.791 124.788C83.7327 125.38 84.4404 125.557 84.9621 125.521C85.459 125.487 85.8862 125.253 86.275 124.792C87.1041 123.807 87.6324 121.934 87.9164 119.59C88.3817 115.749 88.1464 111.144 88.0133 108.541C87.9861 108.007 87.9631 107.558 87.9514 107.216C87.9281 106.542 87.955 105.993 88.039 105.566C88.1172 105.168 88.2727 104.726 88.6369 104.456C89.0688 104.136 89.5472 104.219 89.8729 104.368C90.1836 104.509 90.47 104.752 90.7151 104.998C91.2152 105.499 91.7407 106.219 92.202 106.896C92.4661 107.284 92.7461 107.714 92.9872 108.085C93.1483 108.333 93.292 108.554 93.4019 108.717C96.8415 113.835 99.781 119.279 102.695 124.675C103.397 125.976 104.098 127.274 104.804 128.564C104.996 128.916 104.867 129.356 104.516 129.548C104.165 129.741 103.724 129.612 103.532 129.26C102.817 127.954 102.11 126.645 101.404 125.337C98.4928 119.946 95.5949 114.58 92.1985 109.526C92.0499 109.305 91.8988 109.072 91.7377 108.824C91.5179 108.485 91.2794 108.117 91.0036 107.712C90.5464 107.041 90.0854 106.42 89.6884 106.021C89.6035 105.936 89.5297 105.87 89.4672 105.819C89.4654 105.828 89.4636 105.836 89.4618 105.846ZM56.2876 114.084C56.3238 114.482 56.03 114.835 55.6312 114.871C46.7849 115.675 37.7281 117.216 29.728 121.031C29.7317 121.03 29.6884 121.053 29.5756 121.124C29.4749 121.188 29.3417 121.275 29.1812 121.384C28.8605 121.602 28.4397 121.899 27.9671 122.248C27.0193 122.948 25.88 123.848 24.9278 124.736C24.4514 125.18 24.0325 125.611 23.7105 126.005C23.3792 126.411 23.1907 126.729 23.1192 126.947C23.1008 127.004 23.094 127.042 23.0916 127.066C23.1568 127.105 23.3644 127.195 23.8749 127.213C24.275 127.228 24.5878 127.564 24.5736 127.964C24.5593 128.364 24.2233 128.677 23.8232 128.662C23.1314 128.638 22.4865 128.5 22.0646 128.096C21.5671 127.618 21.5798 126.99 21.7409 126.497C21.8959 126.023 22.219 125.539 22.5877 125.088C22.9657 124.625 23.4352 124.145 23.9389 123.675C24.9468 122.735 26.1342 121.799 27.1053 121.082C27.5922 120.722 28.0289 120.414 28.3671 120.184C28.6813 119.971 28.9613 119.791 29.1039 119.723C37.3364 115.797 46.5965 114.236 55.5 113.427C55.8987 113.391 56.2514 113.685 56.2876 114.084ZM50.8541 123.293C50.9228 123.687 50.6588 124.063 50.2644 124.132C50.1498 124.152 50.0353 124.172 49.9209 124.192C43.72 125.272 37.8569 126.294 32.5031 129.533C32.1936 129.72 31.9338 129.902 31.7167 130.078C32.0489 131.562 32.5408 133.227 33.1219 134.924C33.9967 137.48 35.0608 140.072 36.0484 142.167C36.5423 143.215 37.0138 144.131 37.4296 144.854C37.8556 145.593 38.1935 146.076 38.4146 146.3C39.729 147.636 41.46 147.797 43.4506 147.411C44.4436 147.219 45.4632 146.897 46.4758 146.547C46.7929 146.437 47.1128 146.323 47.431 146.209C48.1084 145.968 48.7781 145.729 49.3957 145.539C55.2523 143.741 59.9525 141.528 63.322 136.67C63.5501 136.341 64.0019 136.259 64.3309 136.487C64.6599 136.716 64.7416 137.167 64.5134 137.496C60.8638 142.758 55.7792 145.096 49.8212 146.926C49.2345 147.106 48.6172 147.326 47.9584 147.561C47.6331 147.677 47.2975 147.796 46.9506 147.917C45.9218 148.273 44.8234 148.623 43.726 148.835C41.5357 149.259 39.1956 149.161 37.3813 147.318C37.0197 146.95 36.6043 146.326 36.173 145.577C35.7316 144.811 35.2418 143.857 34.7368 142.785C33.8922 140.994 32.9959 138.854 32.2032 136.677C32.0003 136.671 31.801 136.58 31.6626 136.41C31.1233 135.75 30.5966 135.088 30.1782 134.437C29.7616 133.789 29.4203 133.104 29.2921 132.392C29.1596 131.656 29.26 130.914 29.6848 130.197C29.809 129.987 29.9584 129.784 30.133 129.587C30.0352 129.081 29.9574 128.597 29.9026 128.14C29.7805 127.12 29.7658 126.177 29.9351 125.42C30.1042 124.665 30.5009 123.936 31.3196 123.666C31.6999 123.541 32.1097 123.748 32.235 124.128C32.3603 124.508 32.1535 124.918 31.7732 125.044C31.6505 125.084 31.4669 125.215 31.3501 125.737C31.2336 126.258 31.2277 127.01 31.3423 127.968C31.3632 128.142 31.3878 128.321 31.416 128.505C31.5242 128.433 31.6363 128.363 31.7525 128.292C37.3425 124.91 43.4435 123.848 49.569 122.781C49.7178 122.755 49.8665 122.729 50.0153 122.703C50.4098 122.634 50.7853 122.898 50.8541 123.293ZM30.698 131.988C30.7032 132.037 30.7103 132.086 30.7192 132.135C30.7552 132.336 30.8217 132.547 30.9181 132.772C30.8417 132.509 30.7682 132.247 30.698 131.988Z" fill="black"/>
</svg>